<svg width="24" height="24" viewBox="0 0 24 24" fill="none" xmlns="http://www.w3.org/2000/svg">
<rect width="24" height="24" fill="white"/>
<path d="M19.8265 3.31126L7.61554 1.15501C7.373 1.1121 7.12438 1.1174 6.88389 1.17061C6.6434 1.22382 6.41575 1.32388 6.21394 1.4651C6.01213 1.60631 5.84012 1.7859 5.70774 1.99361C5.57536 2.20132 5.48521 2.43307 5.44242 2.67564L2.65336 18.5194C2.56725 19.0089 2.67905 19.5127 2.9642 19.9198C3.24934 20.3269 3.68449 20.6042 4.17398 20.6906L16.3849 22.8469C16.4939 22.8662 16.6043 22.876 16.7149 22.8759C17.1563 22.8762 17.5836 22.7207 17.9216 22.4369C18.2596 22.1531 18.4866 21.7591 18.5627 21.3244L21.3518 5.48064C21.3941 5.23804 21.3882 4.98948 21.3345 4.74915C21.2807 4.50883 21.1801 4.28145 21.0385 4.08C20.8969 3.87855 20.7169 3.70697 20.509 3.57507C20.301 3.44317 20.0691 3.35353 19.8265 3.31126ZM16.4065 20.565L4.93429 18.5391L7.59398 3.43501L19.0662 5.46095L16.4065 20.565ZM8.61586 6.28126C8.66776 5.98752 8.83419 5.72642 9.07855 5.55536C9.32292 5.3843 9.62522 5.3173 9.91898 5.36907L16.219 6.48189C16.5007 6.52509 16.7556 6.67362 16.932 6.89748C17.1085 7.12134 17.1934 7.40382 17.1695 7.68786C17.1457 7.9719 17.015 8.23631 16.8037 8.42767C16.5925 8.61903 16.3165 8.72307 16.0315 8.71876C15.9655 8.71865 15.8996 8.713 15.8346 8.70189L9.52804 7.58439C9.2343 7.53249 8.9732 7.36606 8.80214 7.12169C8.63109 6.87732 8.56408 6.57502 8.61586 6.28126ZM7.96898 9.97407C7.99467 9.82853 8.04879 9.68948 8.12824 9.56486C8.20769 9.44025 8.31092 9.3325 8.43202 9.24779C8.55312 9.16308 8.68973 9.10306 8.83404 9.07116C8.97834 9.03927 9.12752 9.03611 9.27305 9.06189L15.5749 10.1756C15.8515 10.2255 16.0995 10.377 16.27 10.6005C16.4404 10.8239 16.5211 11.1031 16.496 11.3831C16.471 11.663 16.3421 11.9234 16.1346 12.1131C15.9272 12.3028 15.6563 12.4079 15.3752 12.4078C15.3092 12.4078 15.2434 12.4021 15.1784 12.3909L8.87742 11.2772C8.58437 11.2244 8.32419 11.0576 8.15391 10.8134C7.98362 10.5691 7.91712 10.2673 7.96898 9.97407ZM7.31273 13.6669C7.36463 13.3731 7.53106 13.112 7.77543 12.941C8.0198 12.7699 8.3221 12.7029 8.61586 12.7547L11.7696 13.3125C12.0469 13.3611 12.2959 13.5118 12.4674 13.735C12.639 13.9582 12.7206 14.2376 12.6963 14.518C12.6719 14.7985 12.5433 15.0596 12.3358 15.2498C12.1283 15.4401 11.857 15.5456 11.5755 15.5456C11.5095 15.5457 11.4436 15.5397 11.3787 15.5278L8.22773 14.9719C8.08185 14.9465 7.9424 14.8926 7.8174 14.8132C7.69239 14.7339 7.58429 14.6306 7.49928 14.5094C7.41427 14.3881 7.35403 14.2513 7.32202 14.1067C7.29001 13.9622 7.28685 13.8127 7.31273 13.6669Z" fill="black"/>
</svg>
